<?xml version="1.0" encoding="UTF-8"?>
<svg id="Layer_1" data-name="Layer 1" xmlns="http://www.w3.org/2000/svg" viewBox="0 0 469.76 274.46">
  <defs>
    <style>
      .cls-1 {
        fill: #f3b91a;
      }

      .cls-1, .cls-2 {
        stroke-width: 0px;
      }

      .cls-2 {
        fill: #ac812d;
      }
    </style>
  </defs>
  <g id="first_page" data-name="first page">
    <path class="cls-1" d="M164.44,114.19c-3.33,6.43-5.23,13.39-5.23,20.71,0,31.49,33.88,57.01,75.67,57.01s75.67-25.52,75.67-57.01c0-7.31-1.89-14.28-5.23-20.71h-140.89Z"/>
    <path class="cls-2" d="M164.44,114.19c-3.33,6.43-5.23,13.39-5.23,20.71,0,31.49,33.88,57.01,75.67,57.01-39.71-10.69-31.16-58.56-38.76-77.72-7.41,0-31.69,0-31.69,0Z"/>
    <ellipse class="cls-1" cx="234.88" cy="47.09" rx="38.76" ry="47.09"/>
    <path class="cls-1" d="M173.52,202.46l-145.02,4.47,27.62,14.53c52.02,27.38,113.14,31.72,168.51,11.98h0s-51.11-30.98-51.11-30.98Z"/>
    <path class="cls-1" d="M296.24,202.46l145.02,4.47-27.62,14.53c-52.02,27.38-113.14,31.72-168.51,11.98h0s51.11-30.98,51.11-30.98Z"/>
    <path class="cls-1" d="M153.32,114.19s-2.56,72.08-153.32,88.27c90.08,0,146.93-39.5,146.93-39.5l6.39-48.77Z"/>
    <path class="cls-1" d="M316.44,114.19s2.56,72.08,153.32,88.27c-90.08,0-146.93-39.5-146.93-39.5l-6.39-48.77Z"/>
    <path class="cls-1" d="M229.13,236.04l60.37,36.38-45.48-13.06c-10.13-2.91-16.51-12.9-14.89-23.32h0Z"/>
    <path class="cls-1" d="M222.52,247.48l-43.93,26.98,34.69-11.02c6.74-2.14,10.74-9.05,9.24-15.96h0Z"/>
  </g>
</svg>